<?xml version="1.0" encoding="UTF-8" standalone="no"?>
<!-- Created with Inkscape (http://www.inkscape.org/) -->

<svg
   xmlns:dc="http://purl.org/dc/elements/1.1/"
   xmlns:cc="http://creativecommons.org/ns#"
   xmlns:rdf="http://www.w3.org/1999/02/22-rdf-syntax-ns#"
   xmlns:svg="http://www.w3.org/2000/svg"
   xmlns="http://www.w3.org/2000/svg"
   xmlns:xlink="http://www.w3.org/1999/xlink"
   xmlns:sodipodi="http://sodipodi.sourceforge.net/DTD/sodipodi-0.dtd"
   xmlns:inkscape="http://www.inkscape.org/namespaces/inkscape"
   width="96"
   height="48"
   id="svg3129"
   version="1.1"
   inkscape:version="0.48.0 r9654"
   sodipodi:docname="icon.svg"
   inkscape:export-filename="C:\xul\tabscope@xuldev.org\icon.png"
   inkscape:export-xdpi="90"
   inkscape:export-ydpi="90">
  <defs
     id="defs3131">
    <linearGradient
       id="linearGradient3972">
      <stop
         style="stop-color:#aaaaaa;stop-opacity:1;"
         offset="0"
         id="stop3974" />
      <stop
         style="stop-color:#969696;stop-opacity:1;"
         offset="1"
         id="stop3976" />
    </linearGradient>
    <linearGradient
       id="linearGradient3944">
      <stop
         style="stop-color:#f0f0f0;stop-opacity:1;"
         offset="0"
         id="stop3946" />
      <stop
         style="stop-color:#cccccc;stop-opacity:1;"
         offset="1"
         id="stop3948" />
    </linearGradient>
    <linearGradient
       inkscape:collect="always"
       xlink:href="#linearGradient3944"
       id="linearGradient3954"
       x1="27"
       y1="11"
       x2="27"
       y2="23"
       gradientUnits="userSpaceOnUse"
       gradientTransform="translate(-2,999.3622)" />
    <linearGradient
       inkscape:collect="always"
       xlink:href="#linearGradient3761-8-0-4"
       id="linearGradient3767"
       x1="8"
       y1="1012.3622"
       x2="40"
       y2="1044.3622"
       gradientUnits="userSpaceOnUse"
       gradientTransform="matrix(0.75,0,0,0.71875,6,-693.63528)" />
    <linearGradient
       id="linearGradient3761-8-0-4">
      <stop
         style="stop-color:#c8e6c8;stop-opacity:1;"
         offset="0"
         id="stop3763-2-1-6" />
      <stop
         id="stop3769-6-6-0"
         offset="1"
         style="stop-color:#3cbc7b;stop-opacity:1;" />
    </linearGradient>
    <linearGradient
       gradientTransform="matrix(1.0833333,0,0,1.0416667,6.6666667,-1034.044)"
       inkscape:collect="always"
       xlink:href="#linearGradient3837"
       id="linearGradient3843"
       x1="4"
       y1="1024.3622"
       x2="28"
       y2="1048.3622"
       gradientUnits="userSpaceOnUse" />
    <linearGradient
       id="linearGradient3837">
      <stop
         style="stop-color:#e6ffe6;stop-opacity:1;"
         offset="0"
         id="stop3839" />
      <stop
         style="stop-color:#50d08f;stop-opacity:1;"
         offset="1"
         id="stop3841" />
    </linearGradient>
    <linearGradient
       id="linearGradient3845">
      <stop
         style="stop-color:#6bcf8c;stop-opacity:1;"
         offset="0"
         id="stop3847" />
      <stop
         style="stop-color:#45a766;stop-opacity:1;"
         offset="1"
         id="stop3849" />
    </linearGradient>
    <linearGradient
       gradientTransform="matrix(1.0769231,0,0,1.0384615,6.7692308,-1030.7223)"
       y2="1049.3622"
       x2="29"
       y1="1023.3622"
       x1="3"
       gradientUnits="userSpaceOnUse"
       id="linearGradient3086"
       xlink:href="#linearGradient3845"
       inkscape:collect="always" />
    <filter
       id="filter3162"
       inkscape:label="Drop shadow"
       width="1.5"
       height="1.5"
       x="-0.25"
       y="-0.25"
       color-interpolation-filters="sRGB">
      <feGaussianBlur
         id="feGaussianBlur3164"
         in="SourceAlpha"
         stdDeviation="1"
         result="blur" />
      <feColorMatrix
         id="feColorMatrix3166"
         result="bluralpha"
         type="matrix"
         values="1 0 0 0 0 0 1 0 0 0 0 0 1 0 0 0 0 0 0.25 0 " />
      <feOffset
         id="feOffset3168"
         in="bluralpha"
         dx="1"
         dy="1"
         result="offsetBlur" />
      <feMerge
         id="feMerge3170">
        <feMergeNode
           id="feMergeNode3172"
           in="offsetBlur" />
        <feMergeNode
           id="feMergeNode3174"
           in="SourceGraphic" />
      </feMerge>
    </filter>
    <linearGradient
       inkscape:collect="always"
       xlink:href="#linearGradient3845"
       id="linearGradient3041"
       gradientUnits="userSpaceOnUse"
       gradientTransform="matrix(0.84615387,0,0,0.84615382,50.461538,-825.92189)"
       x1="3"
       y1="1023.3622"
       x2="29"
       y2="1049.3622" />
    <linearGradient
       inkscape:collect="always"
       xlink:href="#linearGradient3837"
       id="linearGradient3043"
       gradientUnits="userSpaceOnUse"
       gradientTransform="matrix(0.83333332,0,0,0.83333337,50.666666,-812.6352)"
       x1="4.0000005"
       y1="1024.3622"
       x2="28.000002"
       y2="1048.3622" />
    <linearGradient
       inkscape:collect="always"
       xlink:href="#linearGradient3761-8-0-4"
       id="linearGradient3045"
       gradientUnits="userSpaceOnUse"
       gradientTransform="matrix(0.5625,0,0,0.5625,50.5,-527.45371)"
       x1="8"
       y1="1012.3621"
       x2="40"
       y2="1044.3622" />
    <linearGradient
       inkscape:collect="always"
       xlink:href="#linearGradient3944"
       id="linearGradient3047"
       gradientUnits="userSpaceOnUse"
       gradientTransform="translate(40,1001.3622)"
       x1="25"
       y1="22"
       x2="25"
       y2="31" />
    <linearGradient
       inkscape:collect="always"
       xlink:href="#linearGradient3761-8-0-4"
       id="linearGradient3073"
       gradientUnits="userSpaceOnUse"
       gradientTransform="matrix(0.3125,0,0,0.3125,80.5,-265.36313)"
       x1="8"
       y1="1012.362"
       x2="40"
       y2="1044.3621" />
    <linearGradient
       inkscape:collect="always"
       xlink:href="#linearGradient3845"
       id="linearGradient3075"
       gradientUnits="userSpaceOnUse"
       gradientTransform="matrix(0.53846147,0,0,0.53846151,79.384615,-502.04115)"
       x1="3"
       y1="1023.3622"
       x2="29"
       y2="1049.3622" />
    <linearGradient
       inkscape:collect="always"
       xlink:href="#linearGradient3837"
       id="linearGradient3970"
       gradientUnits="userSpaceOnUse"
       gradientTransform="matrix(0.49999999,0,0,0.50000002,80,-462.18112)"
       x1="4.0000005"
       y1="1024.3622"
       x2="28.000002"
       y2="1048.3622" />
    <linearGradient
       inkscape:collect="always"
       xlink:href="#linearGradient3972"
       id="linearGradient3978"
       x1="49"
       y1="1022.3622"
       x2="79"
       y2="1033.3622"
       gradientUnits="userSpaceOnUse" />
    <linearGradient
       inkscape:collect="always"
       xlink:href="#linearGradient3972"
       id="linearGradient3986"
       x1="2"
       y1="1009.3622"
       x2="46"
       y2="1023.3622"
       gradientUnits="userSpaceOnUse" />
  </defs>
  <sodipodi:namedview
     id="base"
     pagecolor="#ffffff"
     bordercolor="#666666"
     borderopacity="1.0"
     inkscape:pageopacity="0.0"
     inkscape:pageshadow="2"
     inkscape:zoom="5.4983767"
     inkscape:cx="30.335324"
     inkscape:cy="9.6157924"
     inkscape:document-units="px"
     inkscape:current-layer="layer4"
     showgrid="true"
     inkscape:snap-grids="true"
     inkscape:window-width="1280"
     inkscape:window-height="748"
     inkscape:window-x="-8"
     inkscape:window-y="-8"
     inkscape:window-maximized="1">
    <inkscape:grid
       type="xygrid"
       id="grid3137"
       empspacing="5"
       visible="true"
       enabled="true"
       snapvisiblegridlinesonly="true" />
  </sodipodi:namedview>
  <metadata
     id="metadata3134">
    <rdf:RDF>
      <cc:Work
         rdf:about="">
        <dc:format>image/svg+xml</dc:format>
        <dc:type
           rdf:resource="http://purl.org/dc/dcmitype/StillImage" />
        <dc:title></dc:title>
      </cc:Work>
    </rdf:RDF>
  </metadata>
  <g
     inkscape:groupmode="layer"
     id="layer2"
     inkscape:label="base"
     transform="translate(0,-16)"
     style="display:inline"
     sodipodi:insensitive="true">
    <rect
       style="fill:url(#linearGradient3086);fill-opacity:1;fill-rule:nonzero;stroke:none;display:inline;filter:url(#filter3162)"
       id="rect2987"
       width="28"
       height="27"
       x="10"
       y="32"
       ry="3.1153846" />
    <rect
       ry="2.34375"
       y="33"
       x="11"
       height="25"
       width="26"
       id="rect3757"
       style="fill:url(#linearGradient3843);fill-opacity:1;fill-rule:nonzero;stroke:none;display:inline"
       inkscape:export-xdpi="90"
       inkscape:export-ydpi="90" />
    <rect
       style="fill:url(#linearGradient3767);fill-opacity:1;fill-rule:nonzero;stroke:none;display:inline"
       id="rect3759"
       width="24"
       height="23"
       x="12"
       y="34"
       ry="1.5682" />
    <rect
       ry="2.5384614"
       y="40"
       x="53"
       height="22"
       width="22"
       id="rect3027"
       style="fill:url(#linearGradient3041);fill-opacity:1;fill-rule:nonzero;stroke:none;display:inline;filter:url(#filter3162)" />
    <rect
       inkscape:export-ydpi="90"
       inkscape:export-xdpi="90"
       style="fill:url(#linearGradient3043);fill-opacity:1;fill-rule:nonzero;stroke:none;display:inline"
       id="rect3029"
       width="20"
       height="20"
       x="54"
       y="41"
       ry="1.875" />
    <rect
       ry="1.2272869"
       y="42"
       x="55"
       height="18"
       width="18"
       id="rect3031"
       style="fill:url(#linearGradient3045);fill-opacity:1;fill-rule:nonzero;stroke:none;display:inline" />
    <rect
       ry="2.0000174"
       y="49"
       x="81"
       height="14"
       width="14"
       id="rect3046"
       style="fill:url(#linearGradient3075);fill-opacity:1;fill-rule:nonzero;stroke:none;display:inline" />
    <rect
       ry="1.125"
       y="50"
       x="82"
       height="12"
       width="12"
       id="rect3968"
       style="fill:url(#linearGradient3970);fill-opacity:1;fill-rule:nonzero;stroke:none;display:inline"
       inkscape:export-xdpi="90"
       inkscape:export-ydpi="90" />
    <rect
       ry="1.25"
       y="51"
       x="83"
       height="10"
       width="10"
       id="rect3030"
       style="fill:url(#linearGradient3073);fill-opacity:1;fill-rule:nonzero;stroke:none;display:inline" />
  </g>
  <g
     inkscape:groupmode="layer"
     id="layer3"
     inkscape:label="scope"
     style="display:inline"
     sodipodi:insensitive="true">
    <path
       style="fill:#ffffff;fill-opacity:1;fill-rule:nonzero;stroke:#3366cc;stroke-width:0;stroke-linecap:round;stroke-linejoin:miter;stroke-miterlimit:4;stroke-opacity:1;stroke-dasharray:none"
       d="M 24.5,21 C 19.80558,21 16,24.80558 16,29.5 16,34.19442 19.80558,38 24.5,38 29.19442,38 33,34.19442 33,29.5 33,24.80558 29.19442,21 24.5,21 z m 0.03125,2 c 3.589851,0 6.5,2.910149 6.5,6.5 0,3.589851 -2.910149,6.5 -6.5,6.5 -3.589851,0 -6.5,-2.910149 -6.5,-6.5 0,-3.589851 2.910149,-6.5 6.5,-6.5 z"
       id="path3018"
       inkscape:connector-curvature="0" />
    <path
       style="opacity:0.6;fill:#ffffff;fill-opacity:1;fill-rule:nonzero;stroke:#2d6cb4;stroke-width:0;stroke-linecap:round;stroke-linejoin:miter;stroke-miterlimit:4;stroke-opacity:1;stroke-dasharray:none"
       d="m 24,22 0,7 -7,0 0,1 7,0 0,7 1,0 0,-7 7,0 0,-1 -7,0 0,-7 -1,0 z"
       id="rect3022"
       inkscape:connector-curvature="0" />
    <path
       transform="matrix(1.8888889,0,0,1.8888889,-14.222222,7.5555552)"
       d="m 25,27.5 a 4.5,4.5 0 1 1 -9,0 4.5,4.5 0 1 1 9,0 z"
       sodipodi:ry="4.5"
       sodipodi:rx="4.5"
       sodipodi:cy="27.5"
       sodipodi:cx="20.5"
       id="path3028"
       style="fill:#996600;fill-opacity:1;fill-rule:nonzero;stroke:#3366cc;stroke-width:0;stroke-linecap:round;stroke-linejoin:miter;stroke-miterlimit:4;stroke-opacity:1;stroke-dasharray:none"
       sodipodi:type="arc" />
    <path
       sodipodi:type="arc"
       style="fill:#ffff00;fill-opacity:1;fill-rule:nonzero;stroke:#3366cc;stroke-width:0;stroke-linecap:round;stroke-linejoin:miter;stroke-miterlimit:4;stroke-opacity:1;stroke-dasharray:none"
       id="path3030"
       sodipodi:cx="20.5"
       sodipodi:cy="27.5"
       sodipodi:rx="4.5"
       sodipodi:ry="4.5"
       d="m 25,27.5 a 4.5,4.5 0 1 1 -9,0 4.5,4.5 0 1 1 9,0 z"
       transform="matrix(1.4444444,0,0,1.4444444,-5.0899734,19.777935)" />
    <rect
       ry="0"
       y="58.999996"
       x="17"
       height="1"
       width="15"
       id="rect3032"
       style="fill:#ffffff;fill-opacity:1;fill-rule:nonzero;stroke:#2d6cb4;stroke-width:0;stroke-linecap:round;stroke-linejoin:miter;stroke-miterlimit:4;stroke-opacity:1;stroke-dasharray:none" />
    <rect
       transform="matrix(0,1,-1,0,0,0)"
       style="fill:#ffffff;fill-opacity:1;fill-rule:nonzero;stroke:#2d6cb4;stroke-width:0;stroke-linecap:round;stroke-linejoin:miter;stroke-miterlimit:4;stroke-opacity:1;stroke-dasharray:none"
       id="rect3034"
       width="15"
       height="1"
       x="51.999996"
       y="-25"
       ry="0" />
    <path
       sodipodi:type="arc"
       style="fill:#996600;fill-opacity:1;fill-rule:nonzero;stroke:#3366cc;stroke-width:0;stroke-linecap:round;stroke-linejoin:miter;stroke-miterlimit:4;stroke-opacity:1;stroke-dasharray:none"
       id="path3054"
       sodipodi:cx="20.5"
       sodipodi:cy="27.5"
       sodipodi:rx="4.5"
       sodipodi:ry="4.5"
       d="m 25,27.5 a 4.5,4.5 0 1 1 -9,0 4.5,4.5 0 1 1 9,0 z"
       transform="matrix(1.4444444,0,0,1.4444444,34.88889,16.777778)" />
    <path
       transform="matrix(1.2222222,0,0,1.2222222,39.444446,22.88889)"
       d="m 25,27.5 a 4.5,4.5 0 1 1 -9,0 4.5,4.5 0 1 1 9,0 z"
       sodipodi:ry="4.5"
       sodipodi:rx="4.5"
       sodipodi:cy="27.5"
       sodipodi:cx="20.5"
       id="path3056"
       style="fill:#ffff00;fill-opacity:1;fill-rule:nonzero;stroke:#3366cc;stroke-width:0;stroke-linecap:round;stroke-linejoin:miter;stroke-miterlimit:4;stroke-opacity:1;stroke-dasharray:none"
       sodipodi:type="arc" />
    <rect
       style="fill:#ffffff;fill-opacity:1;fill-rule:nonzero;stroke:#2d6cb4;stroke-width:0;stroke-linecap:round;stroke-linejoin:miter;stroke-miterlimit:4;stroke-opacity:1;stroke-dasharray:none"
       id="rect3058"
       width="11"
       height="1"
       x="59"
       y="56"
       ry="0" />
    <rect
       ry="0"
       y="-65"
       x="51"
       height="1"
       width="11"
       id="rect3060"
       style="fill:#ffffff;fill-opacity:1;fill-rule:nonzero;stroke:#2d6cb4;stroke-width:0;stroke-linecap:round;stroke-linejoin:miter;stroke-miterlimit:4;stroke-opacity:1;stroke-dasharray:none"
       transform="matrix(0,1,-1,0,0,0)" />
    <path
       style="fill:#ffffff;fill-opacity:1;fill-rule:nonzero;stroke:#3366cc;stroke-width:0;stroke-linecap:round;stroke-linejoin:miter;stroke-miterlimit:4;stroke-opacity:1;stroke-dasharray:none"
       d="M 64.5,30 C 60.910149,30 58,32.910149 58,36.5 58,40.089851 60.910149,43 64.5,43 68.089851,43 71,40.089851 71,36.5 71,32.910149 68.089851,30 64.5,30 z m 0,1 C 67.537566,31 70,33.462434 70,36.5 70,39.537566 67.537566,42 64.5,42 61.462434,42 59,39.537566 59,36.5 59,33.462434 61.462434,31 64.5,31 z"
       id="path3073"
       inkscape:connector-curvature="0" />
    <path
       style="opacity:0.6;fill:#ffffff;fill-opacity:1;fill-rule:nonzero;stroke:#2d6cb4;stroke-width:0;stroke-linecap:round;stroke-linejoin:miter;stroke-miterlimit:4;stroke-opacity:1;stroke-dasharray:none"
       d="m 64,31 0,5 -5,0 0,1 5,0 0,5 1,0 0,-5 5,0 0,-1 -5,0 0,-5 -1,0 z"
       id="rect3077"
       inkscape:connector-curvature="0" />
    <path
       style="fill:#ffffff;fill-opacity:1;fill-rule:nonzero;stroke:#ffffff;stroke-width:0;stroke-linecap:round;stroke-linejoin:miter;stroke-miterlimit:4;stroke-opacity:1;stroke-dasharray:none;display:inline"
       d="m 88,35.5 c -2.485281,0 -4.5,2.01474 -4.5,4.5 0,2.48526 2.014719,4.5 4.5,4.5 2.485281,0 4.5,-2.01474 4.5,-4.5 0,-2.48526 -2.014719,-4.5 -4.5,-4.5 z m 0,0.9 c 1.988225,0 3.6,1.61181 3.6,3.6 0,1.98819 -1.611775,3.6 -3.6,3.6 -1.988225,0 -3.6,-1.61181 -3.6,-3.6 0,-1.98819 1.611775,-3.6 3.6,-3.6 z"
       id="path3842"
       inkscape:connector-curvature="0" />
    <path
       style="fill:#ffffff;fill-opacity:1;fill-rule:nonzero;stroke:#ffffff;stroke-width:0;stroke-linecap:round;stroke-linejoin:miter;stroke-miterlimit:4;stroke-opacity:1;stroke-dasharray:none;display:inline"
       d="m 87.5,36 0,3.5 -3.5,0 0,1 3.5,0 0,3.5 1,0 0,-3.5 3.5,0 0,-1 -3.5,0 0,-3.5 z"
       id="rect3849"
       inkscape:connector-curvature="0"
       sodipodi:nodetypes="ccccccccccccc" />
  </g>
  <g
     inkscape:label="tab"
     inkscape:groupmode="layer"
     id="layer1"
     transform="translate(0,-1004.3622)"
     style="display:inline"
     sodipodi:insensitive="true">
    <path
       sodipodi:nodetypes="sccccccccss"
       inkscape:connector-curvature="0"
       id="path3964"
       d="m 14,1009.3622 c -2.286999,0 -4,1.6205 -4,4 l 0,6 -8,0 0,4 44,0 0,-4 -8,0 0,-6 c 0,-2.354 -1.579072,-4 -4,-4 z"
       style="fill:url(#linearGradient3986);fill-opacity:1;fill-rule:nonzero;stroke:none" />
    <path
       style="fill:url(#linearGradient3954);fill-opacity:1;fill-rule:nonzero;stroke:none"
       d="m 14,1010.3622 c -1.661999,0 -3,1.338 -3,3 l 0,7 -8,0 0,2 42,0 0,-2 -8,0 0,-7 c 0,-1.662 -1.338001,-3 -3,-3 z"
       id="rect3139"
       inkscape:connector-curvature="0"
       sodipodi:nodetypes="sccccccccss" />
    <path
       style="fill:url(#linearGradient3978);fill-opacity:1;fill-rule:nonzero;stroke:none"
       d="m 56,1022.3622 c -2,0 -3,1 -3,3 l 0,4 -4,0 0,4 30,0 0,-4 -4,0 0,-4 c 0,-2 -1,-3 -3,-3 z"
       id="path3037"
       inkscape:connector-curvature="0"
       sodipodi:nodetypes="sccccccccss" />
    <path
       sodipodi:nodetypes="sccccccccss"
       inkscape:connector-curvature="0"
       id="path3039"
       d="m 56,1023.3622 c -1,0 -2,1 -2,2 l 0,5 -4,0 0,2 28,0 0,-2 -4,0 0,-5 c 0,-1 -1,-2 -2,-2 z"
       style="fill:url(#linearGradient3047);fill-opacity:1;fill-rule:nonzero;stroke:none" />
  </g>
  <g
     inkscape:groupmode="layer"
     id="layer4"
     inkscape:label="export"
     style="opacity:0;display:inline">
    <rect
       style="fill:#ffccff;fill-opacity:1;fill-rule:nonzero;stroke:none"
       id="icon48"
       width="48"
       height="48"
       x="0"
       y="0"
       ry="0"
       inkscape:export-xdpi="90"
       inkscape:export-ydpi="90">
      <title
         id="title3853">icon48</title>
    </rect>
    <rect
       ry="0"
       y="16"
       x="48"
       height="32"
       width="32"
       id="icon32"
       style="fill:#ffccff;fill-opacity:1;fill-rule:nonzero;stroke:none"
       inkscape:export-xdpi="90"
       inkscape:export-ydpi="90">
      <title
         id="title3851">icon32</title>
    </rect>
    <rect
       inkscape:export-ydpi="90"
       inkscape:export-xdpi="90"
       style="fill:#ccf4cc;fill-opacity:1;fill-rule:nonzero;stroke:none"
       id="favicon"
       width="16"
       height="16"
       x="80"
       y="32"
       ry="0">
      <title
         id="title3081">favicon</title>
    </rect>
  </g>
</svg>
