<?xml version="1.0" encoding="UTF-8" standalone="no"?>
<!-- Created with Inkscape (http://www.inkscape.org/) -->

<svg
   xmlns:dc="http://purl.org/dc/elements/1.1/"
   xmlns:cc="http://creativecommons.org/ns#"
   xmlns:rdf="http://www.w3.org/1999/02/22-rdf-syntax-ns#"
   xmlns:svg="http://www.w3.org/2000/svg"
   xmlns="http://www.w3.org/2000/svg"
   xmlns:xlink="http://www.w3.org/1999/xlink"
   xmlns:sodipodi="http://sodipodi.sourceforge.net/DTD/sodipodi-0.dtd"
   xmlns:inkscape="http://www.inkscape.org/namespaces/inkscape"
   width="144"
   height="32"
   id="svg2938"
   version="1.1"
   inkscape:version="0.48.0 r9654"
   sodipodi:docname="toolbar.svg"
   style="display:inline"
   inkscape:export-filename="C:\xul\tabscope@xuldev.org\chrome\skin\classic\tabscope\toolbar.png"
   inkscape:export-xdpi="90"
   inkscape:export-ydpi="90">
  <defs
     id="defs2940">
    <linearGradient
       id="linearGradient5300">
      <stop
         style="stop-color:#d3d3d3;stop-opacity:1;"
         offset="0"
         id="stop5302" />
      <stop
         style="stop-color:#d3d3d3;stop-opacity:0.60000002;"
         offset="1"
         id="stop5304" />
    </linearGradient>
    <linearGradient
       id="linearGradient5160-3-74-0">
      <stop
         style="stop-color:#7e8b92;stop-opacity:1;"
         offset="0"
         id="stop5162-5-0-9" />
      <stop
         style="stop-color:#525d66;stop-opacity:1;"
         offset="1"
         id="stop5164-7-9-7" />
    </linearGradient>
    <linearGradient
       inkscape:collect="always"
       xlink:href="#linearGradient5160-3-74-0"
       id="linearGradient4871"
       gradientUnits="userSpaceOnUse"
       gradientTransform="matrix(0.32095626,0,0,1.1313709,9.3205128,39.309425)"
       x1="51.928154"
       y1="7.6473012"
       x2="58.159534"
       y2="7.6473012" />
    <linearGradient
       inkscape:collect="always"
       xlink:href="#linearGradient5160-3-74-0"
       id="linearGradient4877"
       gradientUnits="userSpaceOnUse"
       gradientTransform="matrix(0.32095626,0,0,1.1313709,-65.628019,-35.639106)"
       x1="51.928154"
       y1="7.6473012"
       x2="58.159534"
       y2="7.6473012" />
    <linearGradient
       inkscape:collect="always"
       xlink:href="#linearGradient3433"
       id="linearGradient5006"
       gradientUnits="userSpaceOnUse"
       gradientTransform="matrix(0.22695035,-0.22695035,0.80000003,0.80000003,34.387188,37.205104)"
       x1="51.928154"
       y1="7.6473012"
       x2="58.159534"
       y2="7.6473012" />
    <linearGradient
       inkscape:collect="always"
       xlink:href="#linearGradient5160-3-74-0"
       id="linearGradient5008"
       gradientUnits="userSpaceOnUse"
       gradientTransform="matrix(0.22695035,-0.22695035,0.80000003,0.80000003,34.387188,37.205104)"
       x1="51.928154"
       y1="7.6473012"
       x2="58.159534"
       y2="7.6473012" />
    <linearGradient
       inkscape:collect="always"
       xlink:href="#linearGradient3433"
       id="linearGradient4318"
       x1="1"
       y1="8"
       x2="14"
       y2="8"
       gradientUnits="userSpaceOnUse"
       gradientTransform="translate(-3.0000028,22.830723)" />
    <linearGradient
       inkscape:collect="always"
       xlink:href="#linearGradient3433"
       id="linearGradient4322"
       gradientUnits="userSpaceOnUse"
       x1="1"
       y1="8"
       x2="14"
       y2="8"
       gradientTransform="matrix(-1,0,0,1,28.999997,22.830723)" />
    <linearGradient
       inkscape:collect="always"
       xlink:href="#linearGradient3433"
       id="linearGradient4319"
       x1="34"
       y1="8"
       x2="45"
       y2="8"
       gradientUnits="userSpaceOnUse"
       gradientTransform="translate(-3.0000028,22.830723)" />
    <linearGradient
       inkscape:collect="always"
       xlink:href="#linearGradient5160-3-74-0"
       id="linearGradient4366"
       gradientUnits="userSpaceOnUse"
       gradientTransform="matrix(0.25676502,0,0,1.1313709,-52.4368,50.625343)"
       x1="51.928154"
       y1="7.6473012"
       x2="58.159534"
       y2="7.6473012" />
    <linearGradient
       inkscape:collect="always"
       xlink:href="#linearGradient5160-3-74-0"
       id="linearGradient4370"
       gradientUnits="userSpaceOnUse"
       gradientTransform="matrix(0.25676502,0,0,1.1313709,45.143928,-46.955385)"
       x1="51.928154"
       y1="7.6473012"
       x2="58.159534"
       y2="7.6473012" />
    <linearGradient
       inkscape:collect="always"
       xlink:href="#linearGradient3433"
       id="linearGradient4396"
       gradientUnits="userSpaceOnUse"
       x1="67.1875"
       y1="8"
       x2="76.8125"
       y2="8"
       gradientTransform="translate(-3.0000028,22.830723)" />
    <linearGradient
       inkscape:collect="always"
       xlink:href="#linearGradient5160-3-74-0"
       id="linearGradient4398"
       gradientUnits="userSpaceOnUse"
       gradientTransform="matrix(-0.18156029,0.18156029,0.80000003,0.80000003,72.87594,14.719106)"
       x1="51.928154"
       y1="7.6473012"
       x2="58.159534"
       y2="7.6473012" />
    <linearGradient
       y2="8"
       x2="14"
       y1="8"
       x1="1"
       gradientTransform="translate(-19.000003,38.830728)"
       gradientUnits="userSpaceOnUse"
       id="linearGradient3139-0-6"
       xlink:href="#linearGradient4397-1"
       inkscape:collect="always" />
    <linearGradient
       id="linearGradient4397-1">
      <stop
         id="stop4399-8"
         offset="0"
         style="stop-color:#2682ba;stop-opacity:1;" />
      <stop
         id="stop4401-9"
         offset="1"
         style="stop-color:#05599a;stop-opacity:1;" />
    </linearGradient>
    <filter
       height="1.5"
       width="2"
       y="-0.25"
       x="-0.5"
       color-interpolation-filters="sRGB"
       inkscape:menu-tooltip="Adds a colorizable drop shadow inside"
       inkscape:menu="Shadows and Glows"
       inkscape:label="innerglow:active"
       id="filter3572-2">
      <feGaussianBlur
         result="result8"
         stdDeviation="1"
         id="feGaussianBlur3574-7" />
      <feOffset
         result="result11"
         dy="1"
         dx="0"
         id="feOffset3576-9" />
      <feComposite
         operator="atop"
         in="SourceGraphic"
         result="result6"
         in2="result11"
         id="feComposite3578-5" />
      <feFlood
         flood-color="rgb(38,129,185)"
         flood-opacity="0.25"
         in="result6"
         result="result10"
         id="feFlood3580-4" />
      <feBlend
         result="result12"
         in="result6"
         mode="normal"
         in2="result10"
         id="feBlend3582-3" />
      <feComposite
         operator="atop"
         result="fbSourceGraphic"
         in2="SourceGraphic"
         id="feComposite3584-1" />
      <feColorMatrix
         type="luminanceToAlpha"
         id="feColorMatrix3586-2"
         values="0 0 0 -1 0 0 0 0 -1 0 0 0 0 -1 0 0 0 0 1 0"
         in="fbSourceGraphic"
         result="fbSourceGraphicAlpha" />
      <feGaussianBlur
         in="fbSourceGraphic"
         result="result8"
         stdDeviation="1"
         id="feGaussianBlur3588-3" />
      <feOffset
         result="result11"
         dy="0"
         dx="0"
         id="feOffset3590-3" />
      <feComposite
         operator="atop"
         in="fbSourceGraphic"
         result="result6"
         in2="result11"
         id="feComposite3592-4" />
      <feFlood
         flood-color="rgb(16,63,86)"
         flood-opacity="1"
         in="result6"
         result="result10"
         id="feFlood3594-1" />
      <feBlend
         result="result13"
         in="result6"
         mode="normal"
         in2="result10"
         id="feBlend3596-1" />
      <feComposite
         operator="atop"
         result="fbSourceGraphic"
         in2="fbSourceGraphic"
         id="feComposite3598-3" />
      <feColorMatrix
         id="feColorMatrix3600-8"
         values="0 0 0 -1 0 0 0 0 -1 0 0 0 0 -1 0 0 0 0 1 0"
         in="fbSourceGraphic"
         result="fbSourceGraphicAlpha" />
      <feGaussianBlur
         result="blur"
         stdDeviation="0.40000000000000002"
         in="fbSourceGraphicAlpha"
         id="feGaussianBlur3602-7" />
      <feColorMatrix
         values="-1 0 0 0 1 0 -1 0 0 1 0 0 -1 0 1 0 0 0 0.25 0 "
         type="matrix"
         result="bluralpha"
         id="feColorMatrix3604-4" />
      <feOffset
         result="offsetBlur"
         dy="1"
         dx="0.000000"
         in="bluralpha"
         id="feOffset3606-2" />
      <feMerge
         result="fbSourceGraphic"
         id="feMerge3608-7">
        <feMergeNode
           in="offsetBlur"
           id="feMergeNode3610-7" />
        <feMergeNode
           in="fbSourceGraphic"
           id="feMergeNode3612-9" />
      </feMerge>
      <feColorMatrix
         id="feColorMatrix3614-3"
         values="0 0 0 -1 0 0 0 0 -1 0 0 0 0 -1 0 0 0 0 1 0"
         in="fbSourceGraphic"
         result="fbSourceGraphicAlpha" />
      <feGaussianBlur
         result="blur"
         stdDeviation="1"
         in="fbSourceGraphicAlpha"
         id="feGaussianBlur3616-1" />
      <feColorMatrix
         values="-1 0 0 0 1 0 -1 0 0 1 0 0 -1 0 1 0 0 0 0.500000 0 "
         type="matrix"
         result="bluralpha"
         id="feColorMatrix3618-9" />
      <feOffset
         result="offsetBlur"
         dy="0.000000"
         dx="0.000000"
         in="bluralpha"
         id="feOffset3620-8" />
      <feMerge
         id="feMerge3622-6">
        <feMergeNode
           in="offsetBlur"
           id="feMergeNode3624-5" />
        <feMergeNode
           in="fbSourceGraphic"
           id="feMergeNode3626-0" />
      </feMerge>
    </filter>
    <filter
       id="filter5189-2"
       inkscape:label="innerglow"
       inkscape:menu="Shadows and Glows"
       inkscape:menu-tooltip="Adds a colorizable drop shadow inside"
       color-interpolation-filters="sRGB"
       x="-0.5"
       y="-0.25"
       width="2"
       height="1.5">
      <feGaussianBlur
         id="feGaussianBlur5191-4"
         stdDeviation="1"
         result="result8" />
      <feOffset
         id="feOffset5193-8"
         dx="0"
         dy="1"
         result="result11" />
      <feComposite
         id="feComposite5195-6"
         in2="result11"
         result="result6"
         in="SourceGraphic"
         operator="atop" />
      <feFlood
         id="feFlood5197-5"
         result="result10"
         in="result6"
         flood-opacity="0.25"
         flood-color="rgb(0,0,0)" />
      <feBlend
         id="feBlend5199-0"
         in2="result10"
         mode="normal"
         in="result6"
         result="result12" />
      <feComposite
         id="feComposite5201-9"
         in2="SourceGraphic"
         result="fbSourceGraphic"
         operator="atop" />
      <feColorMatrix
         result="fbSourceGraphicAlpha"
         in="fbSourceGraphic"
         values="0 0 0 -1 0 0 0 0 -1 0 0 0 0 -1 0 0 0 0 1 0"
         id="feColorMatrix2930-0"
         type="luminanceToAlpha" />
      <feGaussianBlur
         id="feGaussianBlur2932-0"
         stdDeviation="1"
         result="result8"
         in="fbSourceGraphic" />
      <feOffset
         id="feOffset2934-6"
         dx="0"
         dy="0"
         result="result11" />
      <feComposite
         id="feComposite2936-1"
         in2="result11"
         result="result6"
         in="fbSourceGraphic"
         operator="atop" />
      <feFlood
         id="feFlood2938-3"
         result="result10"
         in="result6"
         flood-opacity="1"
         flood-color="rgb(0,0,0)" />
      <feBlend
         id="feBlend2940-8"
         in2="result10"
         mode="normal"
         in="result6"
         result="result13" />
      <feComposite
         id="feComposite2942-9"
         in2="fbSourceGraphic"
         result="fbSourceGraphic"
         operator="atop" />
      <feColorMatrix
         result="fbSourceGraphicAlpha"
         in="fbSourceGraphic"
         values="0 0 0 -1 0 0 0 0 -1 0 0 0 0 -1 0 0 0 0 1 0"
         id="feColorMatrix3252-3" />
      <feGaussianBlur
         id="feGaussianBlur3254-4"
         in="fbSourceGraphicAlpha"
         stdDeviation="0.40000000000000002"
         result="blur" />
      <feColorMatrix
         id="feColorMatrix3256-4"
         result="bluralpha"
         type="matrix"
         values="-1 0 0 0 1 0 -1 0 0 1 0 0 -1 0 1 0 0 0 0.25 0 " />
      <feOffset
         id="feOffset3258-6"
         in="bluralpha"
         dx="0.000000"
         dy="1"
         result="offsetBlur" />
      <feMerge
         id="feMerge3260-0"
         result="fbSourceGraphic">
        <feMergeNode
           id="feMergeNode3262-6"
           in="offsetBlur" />
        <feMergeNode
           id="feMergeNode3264-6"
           in="fbSourceGraphic" />
      </feMerge>
      <feColorMatrix
         result="fbSourceGraphicAlpha"
         in="fbSourceGraphic"
         values="0 0 0 -1 0 0 0 0 -1 0 0 0 0 -1 0 0 0 0 1 0"
         id="feColorMatrix3416-1" />
      <feGaussianBlur
         id="feGaussianBlur3418-8"
         in="fbSourceGraphicAlpha"
         stdDeviation="1"
         result="blur" />
      <feColorMatrix
         id="feColorMatrix3420-4"
         result="bluralpha"
         type="matrix"
         values="-1 0 0 0 1 0 -1 0 0 1 0 0 -1 0 1 0 0 0 0.500000 0 " />
      <feOffset
         id="feOffset3422-9"
         in="bluralpha"
         dx="0.000000"
         dy="0.000000"
         result="offsetBlur" />
      <feMerge
         id="feMerge3424-6">
        <feMergeNode
           id="feMergeNode3426-3"
           in="offsetBlur" />
        <feMergeNode
           id="feMergeNode3428-78"
           in="fbSourceGraphic" />
      </feMerge>
    </filter>
    <linearGradient
       y2="8"
       x2="14"
       y1="8"
       x1="1"
       gradientTransform="translate(-19.000003,22.830731)"
       gradientUnits="userSpaceOnUse"
       id="linearGradient3346"
       xlink:href="#linearGradient3433"
       inkscape:collect="always" />
    <linearGradient
       inkscape:collect="always"
       xlink:href="#linearGradient3433"
       id="linearGradient4625"
       x1="81"
       y1="8"
       x2="94"
       y2="8"
       gradientUnits="userSpaceOnUse"
       gradientTransform="translate(-3.0000028,22.830723)" />
    <linearGradient
       gradientTransform="translate(16.000007,-16.000004)"
       inkscape:collect="always"
       xlink:href="#linearGradient3433"
       id="linearGradient4381"
       x1="102"
       y1="49.330723"
       x2="105"
       y2="49.330723"
       gradientUnits="userSpaceOnUse" />
    <linearGradient
       gradientTransform="translate(16.000007,-16.000004)"
       inkscape:collect="always"
       xlink:href="#linearGradient3433"
       id="linearGradient4383"
       x1="97"
       y1="49.330723"
       x2="100"
       y2="49.330723"
       gradientUnits="userSpaceOnUse" />
    <linearGradient
       gradientTransform="translate(16.000007,-16.000004)"
       inkscape:collect="always"
       xlink:href="#linearGradient3433"
       id="linearGradient4385"
       x1="102"
       y1="44.330723"
       x2="105"
       y2="44.330723"
       gradientUnits="userSpaceOnUse" />
    <linearGradient
       gradientTransform="translate(16.000007,-16.000004)"
       y2="44.330723"
       x2="100"
       y1="44.330723"
       x1="97"
       gradientUnits="userSpaceOnUse"
       id="linearGradient3402"
       xlink:href="#linearGradient3433"
       inkscape:collect="always" />
    <linearGradient
       gradientTransform="translate(15.999987,-15.999999)"
       inkscape:collect="always"
       xlink:href="#linearGradient3433"
       id="linearGradient4373"
       x1="117"
       y1="49.830723"
       x2="122"
       y2="49.830723"
       gradientUnits="userSpaceOnUse" />
    <linearGradient
       gradientTransform="translate(15.999987,-15.999999)"
       inkscape:collect="always"
       xlink:href="#linearGradient3433"
       id="linearGradient4375"
       x1="113"
       y1="49.830723"
       x2="116"
       y2="49.830723"
       gradientUnits="userSpaceOnUse" />
    <linearGradient
       gradientTransform="translate(15.999987,-15.999999)"
       inkscape:collect="always"
       xlink:href="#linearGradient3433"
       id="linearGradient4377"
       x1="119"
       y1="44.830723"
       x2="122"
       y2="44.830723"
       gradientUnits="userSpaceOnUse" />
    <linearGradient
       id="linearGradient3433">
      <stop
         style="stop-color:#7e8b92;stop-opacity:1;"
         offset="0"
         id="stop3435" />
      <stop
         style="stop-color:#525d66;stop-opacity:1;"
         offset="1"
         id="stop3437" />
    </linearGradient>
    <linearGradient
       gradientTransform="translate(15.999987,-15.999999)"
       y2="44.830723"
       x2="118"
       y1="44.830723"
       x1="113"
       gradientUnits="userSpaceOnUse"
       id="linearGradient3443"
       xlink:href="#linearGradient3433"
       inkscape:collect="always" />
    <linearGradient
       inkscape:collect="always"
       xlink:href="#linearGradient5160-3-74-0"
       id="linearGradient3136"
       gradientUnits="userSpaceOnUse"
       gradientTransform="matrix(0.25676502,0,0,1.1313709,-74.928913,74.802736)"
       x1="51.928154"
       y1="7.6473012"
       x2="58.159534"
       y2="7.6473012" />
    <linearGradient
       inkscape:collect="always"
       xlink:href="#linearGradient3433"
       id="linearGradient3930"
       x1="98"
       y1="8"
       x2="109.8125"
       y2="8"
       gradientUnits="userSpaceOnUse"
       gradientTransform="translate(-3.0000028,22.830723)" />
    <linearGradient
       inkscape:collect="always"
       xlink:href="#linearGradient4397-1"
       id="linearGradient4986"
       gradientUnits="userSpaceOnUse"
       x1="81"
       y1="8"
       x2="94"
       y2="8"
       gradientTransform="translate(-3.0000028,38.830723)" />
    <linearGradient
       inkscape:collect="always"
       xlink:href="#linearGradient4397-1"
       id="linearGradient4988"
       gradientUnits="userSpaceOnUse"
       x1="98"
       y1="8"
       x2="109.8125"
       y2="8"
       gradientTransform="translate(-3.0000028,38.830723)" />
    <linearGradient
       inkscape:collect="always"
       xlink:href="#linearGradient5300"
       id="linearGradient5306"
       x1="-3.0000029"
       y1="36.830723"
       x2="-3.0000029"
       y2="54.830723"
       gradientUnits="userSpaceOnUse"
       gradientTransform="matrix(0.61538459,0,0,0.88888891,-1.1538473,-9.9076984)" />
    <linearGradient
       inkscape:collect="always"
       xlink:href="#linearGradient5300"
       id="linearGradient3901"
       gradientUnits="userSpaceOnUse"
       gradientTransform="matrix(0.61538459,0,0,0.88888891,-1.1538472,6.092302)"
       x1="-3.0000029"
       y1="36.830723"
       x2="-3.0000029"
       y2="54.830723" />
    <filter
       inkscape:collect="always"
       id="filter4019"
       x="-0.20730155"
       width="1.4146031"
       y="-0.20406252"
       height="1.408125">
      <feGaussianBlur
         inkscape:collect="always"
         stdDeviation="1.0203126"
         id="feGaussianBlur4021" />
    </filter>
    <filter
       inkscape:collect="always"
       id="filter4023"
       x="-0.1883654"
       width="1.3767308"
       y="-0.24487502"
       height="1.48975">
      <feGaussianBlur
         inkscape:collect="always"
         stdDeviation="1.0203126"
         id="feGaussianBlur4025" />
    </filter>
  </defs>
  <sodipodi:namedview
     id="base"
     pagecolor="#ffffff"
     bordercolor="#66ff66"
     borderopacity="1"
     inkscape:pageopacity="0"
     inkscape:pageshadow="2"
     inkscape:zoom="3.0935922"
     inkscape:cx="115.99366"
     inkscape:cy="57.976654"
     inkscape:document-units="px"
     inkscape:current-layer="layer1"
     showgrid="true"
     inkscape:window-width="1280"
     inkscape:window-height="748"
     inkscape:window-x="-8"
     inkscape:window-y="-8"
     inkscape:window-maximized="1"
     showborder="true"
     inkscape:showpageshadow="true"
     showguides="false"
     inkscape:guide-bbox="true"
     inkscape:snap-global="true"
     gridtolerance="1"
     borderlayer="true"
     fit-margin-bottom="-18"
     fit-margin-top="0"
     fit-margin-left="0"
     fit-margin-right="0"
     width="90px"
     inkscape:snap-grids="true"
     inkscape:snap-to-guides="true">
    <inkscape:grid
       type="xygrid"
       id="grid2946"
       empspacing="5"
       visible="true"
       enabled="true"
       snapvisiblegridlinesonly="true" />
    <sodipodi:guide
       orientation="1,0"
       position="5.0000028,48.830792"
       id="guide5119" />
    <sodipodi:guide
       orientation="0,1"
       position="8.000003,52.830792"
       id="guide5121" />
    <sodipodi:guide
       orientation="1,0"
       position="19.000003,47.830792"
       id="guide5123" />
    <sodipodi:guide
       orientation="0,1"
       position="14.000003,38.830792"
       id="guide5125" />
    <inkscape:grid
       type="xygrid"
       id="grid3025"
       empspacing="5"
       visible="true"
       enabled="true"
       snapvisiblegridlinesonly="true"
       spacingx="16px"
       spacingy="16px"
       color="#0000ff"
       opacity="1"
       empcolor="#0000ff"
       empopacity="1" />
  </sodipodi:namedview>
  <metadata
     id="metadata2943">
    <rdf:RDF>
      <cc:Work
         rdf:about="">
        <dc:format>image/svg+xml</dc:format>
        <dc:type
           rdf:resource="http://purl.org/dc/dcmitype/StillImage" />
        <dc:title></dc:title>
      </cc:Work>
    </rdf:RDF>
  </metadata>
  <g
     inkscape:groupmode="layer"
     id="layer3"
     inkscape:label="Background"
     style="display:none"
     transform="translate(3.0000028,-22.830723)"
     sodipodi:insensitive="true">
    <rect
       style="fill:url(#linearGradient5306);fill-opacity:1;stroke:none"
       id="rect5103"
       width="144"
       height="16"
       x="-3.0000029"
       y="22.830723" />
    <rect
       y="38.830723"
       x="-3.0000029"
       height="16"
       width="144"
       id="rect3899"
       style="fill:url(#linearGradient3901);fill-opacity:1;stroke:none" />
  </g>
  <g
     inkscape:groupmode="layer"
     id="layer1"
     inkscape:label="Effect"
     style="display:inline"
     sodipodi:insensitive="true">
    <path
       transform="translate(3.0000028,-22.830723)"
       style="fill:#3e9ade;fill-opacity:1;fill-rule:nonzero;stroke:none;display:inline;filter:url(#filter4023)"
       d="m 82.999997,41.830847 0,3 0,1 -3,0 c -0.554,0 -2,0.446 -2,1 0,0.554 1.446,1 2,1 l 3,0 0,1 0,3 c 1.558125,0 2.815667,-1.313919 2.96875,-3 l 3.03125,0 c -10e-7,-0.03125 2,2 2,2 l 0,-8 -2,2 -3.03125,0 c -0.153083,-1.686081 -1.410625,-3 -2.96875,-3 z"
       id="path5252"
       inkscape:connector-curvature="0" />
    <path
       transform="translate(3.0000028,-22.830723)"
       inkscape:connector-curvature="0"
       style="fill:#3e9ade;fill-opacity:1;fill-rule:nonzero;stroke:none;display:inline;filter:url(#filter4019)"
       d="m 98.999997,40.830847 c -2.209139,0 -4,1.790861 -4,4 0,2.209139 1.790861,4 4,4 0.76423,0 1.486463,-0.221935 2.093753,-0.59375 l 4.59375,4.59375 1.125,-1.125 -4.5625,-4.5625 c 0.46229,-0.652443 0.75,-1.452029 0.75,-2.3125 0,-2.209139 -1.79086,-4 -4.000003,-4 z m 0,1.5 c 1.380713,0 2.500003,1.119288 2.500003,2.5 0,1.380712 -1.11929,2.5 -2.500003,2.5 -1.38071,0 -2.5,-1.119288 -2.5,-2.5 0,-1.380712 1.11929,-2.5 2.5,-2.5 z"
       id="path5254" />
  </g>
  <g
     inkscape:groupmode="layer"
     id="layer2"
     inkscape:label="Base"
     style="display:inline"
     transform="translate(3.0000028,-22.830723)">
    <g
       transform="scale(1.3156087,0.76010443)"
       style="font-size:64.2878952px;font-style:normal;font-weight:normal;line-height:125%;letter-spacing:0px;word-spacing:0px;fill:#000000;fill-opacity:1;stroke:none;font-family:Sans"
       id="text3590" />
    <rect
       style="fill:#ff794b;fill-opacity:1;stroke:url(#linearGradient4871);stroke-width:0;stroke-linecap:round;stroke-linejoin:miter;stroke-miterlimit:4;stroke-opacity:1;stroke-dasharray:none"
       id="rect4799"
       width="2"
       height="12"
       x="25.987181"
       y="41.961346"
       transform="matrix(0.70710678,-0.70710678,0.70710678,0.70710678,0,0)" />
    <rect
       transform="matrix(-0.70710678,-0.70710678,-0.70710678,0.70710678,0,0)"
       y="-32.987183"
       x="-48.961346"
       height="12"
       width="2"
       id="rect4873"
       style="fill:#ff3300;fill-opacity:1;stroke:url(#linearGradient4877);stroke-width:0;stroke-linecap:round;stroke-linejoin:miter;stroke-miterlimit:4;stroke-opacity:1;stroke-dasharray:none" />
    <path
       id="path5004"
       d="m 49.469247,25.893223 -1.40625,1.40625 3.53125,3.53125 -3.53125,3.53125 1.40625,1.40625 3.53125,-3.53125 3.53125,3.53125 1.40625,-1.40625 -3.53125,-3.53125 3.53125,-3.53125 -1.40625,-1.40625 -3.53125,3.53125 -3.53125,-3.53125 z"
       style="fill:url(#linearGradient5006);fill-opacity:1;stroke:url(#linearGradient5008);stroke-width:0;stroke-linecap:round;stroke-linejoin:miter;stroke-miterlimit:4;stroke-opacity:1;stroke-dasharray:none;filter:url(#filter5189-2)"
       inkscape:connector-curvature="0" />
    <path
       sodipodi:type="arc"
       style="fill:#996600;fill-opacity:1;stroke:none"
       id="path4538"
       sodipodi:cx="40.769127"
       sodipodi:cy="-7.9753394"
       sodipodi:rx="5.8557281"
       sodipodi:ry="5.8557281"
       d="m 46.624855,-7.9753394 c 0,3.2340293 -2.621699,5.8557281 -5.855728,5.8557281 -3.234029,0 -5.855728,-2.6216988 -5.855728,-5.8557281 0,-3.2340296 2.621699,-5.8557286 5.855728,-5.8557286 3.234029,0 5.855728,2.621699 5.855728,5.8557286 z"
       transform="matrix(0.93925125,0,0,0.93925125,-1.7924561,22.821571)" />
    <path
       transform="matrix(0.59770534,0,0,0.59770534,12.132072,20.097626)"
       d="m 46.624855,-7.9753394 c 0,3.2340293 -2.621699,5.8557281 -5.855728,5.8557281 -3.234029,0 -5.855728,-2.6216988 -5.855728,-5.8557281 0,-3.2340296 2.621699,-5.8557286 5.855728,-5.8557286 3.234029,0 5.855728,2.621699 5.855728,5.8557286 z"
       sodipodi:ry="5.8557281"
       sodipodi:rx="5.8557281"
       sodipodi:cy="-7.9753394"
       sodipodi:cx="40.769127"
       id="path4548"
       style="fill:#ffff00;fill-opacity:1;stroke:none"
       sodipodi:type="arc" />
    <path
       style="fill:#003399;fill-opacity:1;stroke:#000000;stroke-width:0;stroke-linecap:round;stroke-linejoin:miter;stroke-miterlimit:4;stroke-opacity:1"
       d="m 41.999997,8.830723 0,6 -6,0 z"
       id="rect3541"
       inkscape:connector-curvature="0"
       sodipodi:nodetypes="cccc" />
    <path
       sodipodi:nodetypes="cccc"
       inkscape:connector-curvature="0"
       id="path4561"
       d="m 42.999997,20.830723 0,-6 -6,0 z"
       style="fill:#0083d7;fill-opacity:1;stroke:#000000;stroke-width:0;stroke-linecap:round;stroke-linejoin:miter;stroke-miterlimit:4;stroke-opacity:1" />
    <path
       style="fill:#0083d7;fill-opacity:1;stroke:none"
       d="m -2.0000028,14.830723 6,-6 0,12 c -0.126713,0 -6,-6 -6,-6 z"
       id="rect4298"
       inkscape:connector-curvature="0"
       sodipodi:nodetypes="cccc" />
    <rect
       style="fill:#003399;fill-opacity:1;stroke:none"
       id="rect4301"
       width="7"
       height="4"
       x="3.9999971"
       y="12.830723" />
    <path
       style="fill:url(#linearGradient4318);fill-opacity:1;stroke:none;filter:url(#filter5189-2)"
       d="m 3.9999972,24.830723 -6,6 c 0,0 5.873287,6 6,6 l 0,-4 6.9999998,0 0,-4 -6.9999998,0 0,-4 z"
       id="path4303"
       inkscape:connector-curvature="0" />
    <path
       id="path4320"
       d="m 21.999997,24.830723 6,6 c 0,0 -5.873287,6 -6,6 l 0,-4 -7,0 0,-4 7,0 0,-4 z"
       style="fill:url(#linearGradient4322);fill-opacity:1;stroke:none;filter:url(#filter5189-2)"
       inkscape:connector-curvature="0" />
    <rect
       style="fill:#ff794b;fill-opacity:1;stroke:url(#linearGradient4366);stroke-width:0;stroke-linecap:round;stroke-linejoin:miter;stroke-miterlimit:4;stroke-opacity:1;stroke-dasharray:none"
       id="rect4349"
       width="1.6"
       height="12"
       x="-39.103458"
       y="53.277271"
       transform="matrix(-0.70710678,0.70710678,0.70710678,0.70710678,0,0)" />
    <path
       style="fill:url(#linearGradient4319);fill-opacity:1;stroke:none;filter:url(#filter5189-2)"
       d="m 41.999997,24.830723 -2.15625,2.15625 c -0.926599,-0.716019 -2.080672,-1.15625 -3.34375,-1.15625 -3.037566,0 -5.5,2.462434 -5.5,5.5 0,3.037566 2.462434,5.5 5.5,5.5 1.772769,0 3.337932,-0.853972 4.34375,-2.15625 l -1.40625,-1.40625 c -0.625728,0.950798 -1.714177,1.5625 -2.9375,1.5625 -1.932997,0 -3.5,-1.567003 -3.5,-3.5 0,-1.932997 1.567003,-3.5 3.5,-3.5 0.708313,0 1.354667,0.23316 1.90625,0.59375 l -2.40625,2.40625 3.96875,0 2,0 0.03125,0 0,-6 z"
       id="path3533"
       inkscape:connector-curvature="0" />
    <rect
       transform="matrix(0.70710678,0.70710678,-0.70710678,0.70710678,0,0)"
       y="-44.303459"
       x="58.477268"
       height="12"
       width="1.6"
       id="rect4368"
       style="fill:#ff3300;fill-opacity:1;stroke:url(#linearGradient4370);stroke-width:0;stroke-linecap:round;stroke-linejoin:miter;stroke-miterlimit:4;stroke-opacity:1;stroke-dasharray:none" />
    <path
       style="fill:#0099ff;fill-opacity:0.46484375000000000;stroke:none;"
       d="m 60.999997,17.830723 16,0 0,5 -16,0 z"
       id="path4696"
       inkscape:connector-curvature="0"
       sodipodi:nodetypes="ccccc" />
    <path
       sodipodi:nodetypes="ccccc"
       inkscape:connector-curvature="0"
       id="path4694"
       d="m 60.999997,6.830723 16,0 0,5 -16,0 z"
       style="fill:#0099ff;fill-opacity:0.46484375;stroke:none" />
    <path
       style="fill:url(#linearGradient4396);fill-opacity:1;stroke:url(#linearGradient4398);stroke-width:0;stroke-linecap:round;stroke-linejoin:miter;stroke-miterlimit:4;stroke-opacity:1;stroke-dasharray:none;filter:url(#filter5189-2)"
       d="m 64.874997,27.830723 3,3 -3,3 2.25,0 1.875,-1.875 1.875,1.875 2.25,0 -3,-3 3,-3 -2.25,0 -1.875,1.875 -1.875,-1.875 -2.25,0 z"
       id="rect4372"
       inkscape:connector-curvature="0" />
    <path
       style="fill:url(#linearGradient3346);fill-opacity:1;stroke:none;display:inline;filter:url(#filter5189-2)"
       d="m -12.000003,24.830731 -6,5.999997 c 0,0 5.87328,6 6,6 l 0,-4 6.9999999,0 0,-4 -6.9999999,0 0,-3.999997 z"
       id="path4303-1"
       inkscape:connector-curvature="0" />
    <path
       id="path3548"
       d="m -12.000004,40.830728 -5.999999,6 c 0,0 5.873286,5.999996 5.999999,5.999996 l 0,-3.999996 6.9999999,0 0,-4 -6.9999999,0 0,-4 z"
       style="fill:url(#linearGradient3139-0-6);fill-opacity:1;stroke:none;display:inline;filter:url(#filter3572-2)"
       inkscape:connector-curvature="0" />
    <rect
       style="fill:#ff3300;fill-opacity:1;fill-rule:nonzero;stroke:none;display:inline"
       id="rect3827"
       width="6"
       height="10"
       x="80.000008"
       y="9.8307247"
       ry="3.3333333" />
    <rect
       style="fill:#003399;fill-opacity:1;fill-rule:nonzero;stroke:none;display:inline"
       id="rect3829"
       width="7"
       height="4"
       x="83.000008"
       y="12.830725" />
    <rect
       style="fill:#0099ff;fill-opacity:0.39215686;fill-rule:nonzero;stroke:none;display:inline"
       id="rect3831"
       width="3"
       height="10"
       x="80.000008"
       y="9.8307247" />
    <path
       style="fill:#66cc33;fill-opacity:1;fill-rule:nonzero;stroke:none;display:inline"
       d="m 88.999998,12.830723 2,-2 0,8 c 0,0 -2.000001,-2.03125 -2,-2 z"
       id="rect3833"
       inkscape:connector-curvature="0"
       sodipodi:nodetypes="ccccc" />
    <path
       style="fill:#003399;fill-opacity:0.37226275;fill-rule:nonzero;stroke:none;display:inline"
       d="m 79.999998,13.830723 4.999999,0 c 0.554,0 1,0.446 1,1 0,0.554 -0.446,1 -1,1 l -4.999999,0 c -0.554,0 -2.000001,-0.446 -2.000001,-1 0,-0.554 1.446001,-1 2.000001,-1 z"
       id="rect4153"
       inkscape:connector-curvature="0"
       sodipodi:nodetypes="sssssss" />
    <path
       style="fill:url(#linearGradient4625);fill-opacity:1;fill-rule:nonzero;stroke:none;display:inline;filter:url(#filter5189-2)"
       d="m 82.999997,25.830723 0,3 0,1 -3,0 c -0.554,0 -2,0.446 -2,1 0,0.554 1.446,1 2,1 l 3,0 0,1 0,3 c 1.558125,0 2.815667,-1.313919 2.96875,-3 l 3.03125,0 c -10e-7,-0.03125 2,2 2,2 l 0,-8 -2,2 -3.03125,0 c -0.153083,-1.686081 -1.410625,-3 -2.96875,-3 z"
       id="rect3839"
       inkscape:connector-curvature="0" />
    <rect
       style="fill:url(#linearGradient3402);fill-opacity:1;fill-rule:nonzero;stroke:none;display:inline;filter:url(#filter5189-2)"
       id="rect4389"
       width="3"
       height="3"
       x="113"
       y="26.830723" />
    <rect
       y="26.830723"
       x="118"
       height="3"
       width="3"
       id="rect4391"
       style="fill:url(#linearGradient4385);fill-opacity:1;fill-rule:nonzero;stroke:none;display:inline;filter:url(#filter5189-2)" />
    <rect
       y="31.830723"
       x="113"
       height="3"
       width="3"
       id="rect4393"
       style="fill:url(#linearGradient4383);fill-opacity:1;fill-rule:nonzero;stroke:none;display:inline;filter:url(#filter5189-2)" />
    <rect
       style="fill:url(#linearGradient4381);fill-opacity:1;fill-rule:nonzero;stroke:none;display:inline;filter:url(#filter5189-2)"
       id="rect4395"
       width="3"
       height="3"
       x="118"
       y="31.830723" />
    <rect
       y="26.830723"
       x="129"
       height="4"
       width="4.9999971"
       id="rect4411"
       style="fill:url(#linearGradient3443);fill-opacity:1;fill-rule:nonzero;stroke:none;display:inline;filter:url(#filter5189-2)" />
    <rect
       style="fill:url(#linearGradient4377);fill-opacity:1;fill-rule:nonzero;stroke:none;display:inline;filter:url(#filter5189-2)"
       id="rect4413"
       width="3.0000029"
       height="3.9999998"
       x="135"
       y="26.830723" />
    <rect
       style="fill:url(#linearGradient4375);fill-opacity:1;fill-rule:nonzero;stroke:none;display:inline;filter:url(#filter5189-2)"
       id="rect4415"
       width="2.9999971"
       height="3.9999998"
       x="129"
       y="31.830723" />
    <rect
       y="31.830723"
       x="133"
       height="4"
       width="5"
       id="rect4417"
       style="fill:url(#linearGradient4373);fill-opacity:1;fill-rule:nonzero;stroke:none;display:inline;filter:url(#filter5189-2)" />
    <path
       sodipodi:type="arc"
       style="fill:#996600;fill-opacity:1;fill-rule:nonzero;stroke:none"
       id="path3130"
       sodipodi:cx="102.56583"
       sodipodi:cy="-10.481148"
       sodipodi:rx="3.7830212"
       sodipodi:ry="3.7830212"
       d="m 106.34885,-10.481148 c 0,2.0893052 -1.69372,3.7830214 -3.78302,3.7830214 -2.08931,0 -3.783025,-1.6937162 -3.783025,-3.7830214 0,-2.089305 1.693715,-3.783021 3.783025,-3.783021 2.0893,0 3.78302,1.693716 3.78302,3.783021 z"
       transform="matrix(1.057356,0,0,1.057356,-9.44859,23.913027)" />
    <rect
       transform="matrix(-0.70710678,0.70710678,0.70710678,0.70710678,0,0)"
       y="77.454674"
       x="-61.595577"
       height="12"
       width="1.6"
       id="rect3134"
       style="fill:#0066cc;fill-opacity:1;stroke:url(#linearGradient3136);stroke-width:0;stroke-linecap:round;stroke-linejoin:miter;stroke-miterlimit:4;stroke-opacity:1;stroke-dasharray:none" />
    <path
       style="fill:url(#linearGradient3930);fill-opacity:1;fill-rule:nonzero;stroke:none;filter:url(#filter5189-2)"
       d="m 98.999997,24.830723 c -2.209139,0 -4,1.790861 -4,4 0,2.209139 1.790861,4 4,4 0.76423,0 1.486463,-0.221936 2.093753,-0.59375 l 4.59375,4.59375 1.125,-1.125 -4.5625,-4.5625 c 0.46229,-0.652443 0.75,-1.452029 0.75,-2.3125 0,-2.209139 -1.79086,-4 -4.000003,-4 z m 0,1.5 c 1.380713,0 2.500003,1.119288 2.500003,2.5 0,1.380712 -1.11929,2.5 -2.500003,2.5 -1.38071,0 -2.5,-1.119288 -2.5,-2.5 0,-1.380712 1.11929,-2.5 2.5,-2.5 z"
       id="path3914"
       inkscape:connector-curvature="0" />
    <path
       transform="matrix(0.66084747,0,0,0.66084747,31.21963,19.757163)"
       d="m 106.34885,-10.481148 c 0,2.0893052 -1.69372,3.7830214 -3.78302,3.7830214 -2.08931,0 -3.783025,-1.6937162 -3.783025,-3.7830214 0,-2.089305 1.693715,-3.783021 3.783025,-3.783021 2.0893,0 3.78302,1.693716 3.78302,3.783021 z"
       sodipodi:ry="3.7830212"
       sodipodi:rx="3.7830212"
       sodipodi:cy="-10.481148"
       sodipodi:cx="102.56583"
       id="path3132"
       style="fill:#ffff00;fill-opacity:1;fill-rule:nonzero;stroke:none"
       sodipodi:type="arc" />
    <path
       inkscape:connector-curvature="0"
       id="path4982"
       d="m 82.999997,41.830723 0,3 0,1 -3,0 c -0.554,0 -2,0.446 -2,1 0,0.554 1.446,1 2,1 l 3,0 0,1 0,3 c 1.558125,0 2.815667,-1.313919 2.96875,-3 l 3.03125,0 c -10e-7,-0.03125 2,2 2,2 l 0,-8 -2,2 -3.03125,0 c -0.153083,-1.686081 -1.410625,-3 -2.96875,-3 z"
       style="fill:url(#linearGradient4986);fill-opacity:1;fill-rule:nonzero;stroke:none;display:inline;filter:url(#filter3572-2)" />
    <path
       id="path4984"
       d="m 98.999997,40.830723 c -2.209139,0 -4,1.790861 -4,4 0,2.209139 1.790861,4 4,4 0.76423,0 1.486463,-0.221935 2.093753,-0.59375 l 4.59375,4.59375 1.125,-1.125 -4.5625,-4.5625 c 0.46229,-0.652443 0.75,-1.452029 0.75,-2.3125 0,-2.209139 -1.79086,-4 -4.000003,-4 z m 0,1.5 c 1.380713,0 2.500003,1.119288 2.500003,2.5 0,1.380712 -1.11929,2.5 -2.500003,2.5 -1.38071,0 -2.5,-1.119288 -2.5,-2.5 0,-1.380712 1.11929,-2.5 2.5,-2.5 z"
       style="fill:url(#linearGradient4988);fill-opacity:1;fill-rule:nonzero;stroke:none;filter:url(#filter3572-2)"
       inkscape:connector-curvature="0" />
  </g>
</svg>
